<svg width="83" height="83" viewBox="0 0 83 83" fill="none" xmlns="http://www.w3.org/2000/svg">
<path d="M53.6039 34.5832H38.0414V29.3957C38.0414 28.4412 37.2667 27.6665 36.3122 27.6665C35.3577 27.6665 34.583 28.4412 34.583 29.3957V36.3124C34.583 37.2669 35.3577 38.0417 36.3122 38.0417H53.6039C54.5584 38.0417 55.3332 37.2669 55.3332 36.3124C55.3332 35.3579 54.5584 34.5832 53.6039 34.5832Z" fill="#2A7BE4"/>
<path d="M65.708 41.5C59.988 41.5 55.333 46.155 55.333 51.875C55.333 57.595 59.988 62.25 65.708 62.25C71.428 62.25 76.083 57.595 76.083 51.875C76.083 46.155 71.4282 41.5 65.708 41.5ZM65.708 58.7917C61.8934 58.7917 58.7913 55.6896 58.7913 51.875C58.7913 48.0604 61.8934 44.9583 65.708 44.9583C69.5226 44.9583 72.6247 48.0604 72.6247 51.875C72.6247 55.6896 69.5226 58.7917 65.708 58.7917Z" fill="#2A7BE4"/>
<path d="M13.833 41.5C8.11298 41.5 3.45801 46.155 3.45801 51.875C3.45801 57.595 8.11298 62.25 13.833 62.25C19.553 62.25 24.208 57.595 24.208 51.875C24.208 46.155 19.5532 41.5 13.833 41.5ZM13.833 58.7917C10.0184 58.7917 6.91629 55.6896 6.91629 51.875C6.91629 48.0604 10.0184 44.9583 13.833 44.9583C17.6476 44.9583 20.7497 48.0604 20.7497 51.875C20.7497 55.6896 17.6476 58.7917 13.833 58.7917Z" fill="#2A7BE4"/>
<path d="M57.0625 51.875H22.4792C21.5247 51.875 20.75 52.6497 20.75 53.6042C20.75 54.5587 21.5247 55.3334 22.4792 55.3334H57.0625C58.017 55.3334 58.7917 54.5587 58.7917 53.6042C58.7917 52.6497 58.017 51.875 57.0625 51.875Z" fill="#2A7BE4"/>
<path d="M64.6085 31.132C62.077 29.1122 50.5159 20.75 32.8542 20.75C29.5135 20.75 20.9886 21.0924 13.3077 24.2083H5.1875C4.48897 24.2083 3.8561 24.6303 3.58975 25.2769C3.32 25.9236 3.46865 26.6638 3.96325 27.1618L5.65438 28.8495C1.89863 32.2178 0 36.4647 0 41.5C0 47.4379 0.536096 55.3333 5.1875 55.3333C6.142 55.3333 6.91672 54.5586 6.91672 53.6041C6.91672 52.6496 6.142 51.875 5.1875 51.875C5.17372 51.8716 3.45828 50.9171 3.45828 41.5C3.45828 36.9039 5.3569 33.2657 9.2579 30.3676C9.66253 30.0668 9.91493 29.6068 9.95303 29.1053C9.99112 28.6039 9.80778 28.1127 9.45163 27.7565L9.36165 27.6666H13.6499C13.8782 27.6666 14.1064 27.6217 14.3139 27.5317C21.5038 24.5333 29.6759 24.2083 32.8541 24.2083C51.1625 24.2083 62.7307 34.0611 62.8448 34.1579C63.1594 34.4311 63.5607 34.5833 63.9791 34.5833C75.1944 34.5833 79.5174 41.7628 79.5416 43.2291V50.1458C79.5416 51.0484 78.2102 51.8299 77.8123 51.875H74.3541C73.3996 51.875 72.6248 52.6497 72.6248 53.6042C72.6248 54.5587 73.3996 55.3334 74.3541 55.3334H77.8125C79.9013 55.3334 83 53.1547 83 50.1459V43.2292C83 39.9507 77.3387 31.4051 64.6085 31.132Z" fill="#2A7BE4"/>
</svg>
