<svg width="83" height="83" viewBox="0 0 83 83" fill="none" xmlns="http://www.w3.org/2000/svg">
<g clip-path="url(#clip0)">
<path d="M6.91945 29.3962C3.10496 29.3962 0.00292969 32.4983 0.00292969 36.3128C0.00292969 40.1272 3.10496 43.2293 6.91945 43.2293C10.7339 43.2293 13.836 40.1272 13.836 36.3128C13.836 32.4983 10.7339 29.3962 6.91945 29.3962ZM6.91945 39.7709C5.0105 39.7709 3.46127 38.2181 3.46127 36.3128C3.46127 34.4074 5.0105 32.8546 6.91945 32.8546C8.82839 32.8546 10.3776 34.4074 10.3776 36.3128C10.3776 38.2181 8.82839 39.7709 6.91945 39.7709Z" fill="#2A7BE4"/>
<path d="M56.4132 32.875L53.4218 26.8922C53.1279 26.3078 52.5296 25.9377 51.876 25.9377H46.6887C46.2288 25.9377 45.7895 26.1211 45.4678 26.4427L39.0563 32.8543H12.1062C11.1518 32.8543 10.3771 33.629 10.3771 34.5834C10.3771 35.5309 11.1414 36.3022 12.0819 36.3126C11.2623 36.323 10.5395 36.9177 10.4012 37.7581C10.2422 38.6988 10.8819 39.591 11.8225 39.7466C18.1581 40.8014 28.9442 43.3985 31.4203 45.9473L31.5311 46.1652C34.7991 52.5629 38.8694 60.5203 46.6885 60.5203H70.8961C77.7952 60.5203 82.9999 56.8028 82.9999 51.8748C82.9999 46.6388 71.3008 33.4907 56.4132 32.875ZM70.8962 57.062H46.6885C40.9858 57.062 37.5969 50.436 34.6124 44.5916L34.3945 44.1696C34.3322 44.0521 34.2562 43.938 34.1696 43.8343C30.4106 39.4492 14.2225 36.6412 12.3898 36.3368C12.3068 36.3194 12.2168 36.3126 12.1338 36.3126H39.772C40.2319 36.3126 40.6712 36.1293 40.9928 35.8076L47.4044 29.3961H50.8073L53.7882 35.3581C54.0821 35.9425 54.6804 36.3126 55.334 36.3126C69.5196 36.3126 79.5416 49.2879 79.5416 51.8746C79.5418 54.7345 75.665 57.062 70.8962 57.062Z" fill="#2A7BE4"/>
<path d="M79.5418 50.1423H65.6675C63.3573 50.1423 61.3586 48.6553 60.6946 46.4455L56.9874 34.0822C56.7143 33.1693 55.7494 32.6505 54.8364 32.9237C53.9201 33.2004 53.4013 34.1652 53.6779 35.0782L57.385 47.4414C58.4917 51.1279 61.822 53.604 65.6675 53.604H79.5418C80.4963 53.604 81.271 52.8259 81.271 51.8714C81.271 50.917 80.4963 50.1423 79.5418 50.1423Z" fill="#2A7BE4"/>
<path d="M10.2491 30.5652L6.79096 23.6486C6.37938 22.829 5.39735 22.4729 4.557 22.836L1.04338 24.3507C0.220373 24.7034 -0.194615 25.6302 0.088906 26.4845L1.81808 31.6718C2.12591 32.5778 3.10794 33.0655 4.00714 32.7646C4.91314 32.4637 5.40432 31.4851 5.09988 30.5755L3.87227 26.8959L4.42553 26.6573L7.15748 32.1178C7.46175 32.7229 8.07045 33.0723 8.70331 33.0723C8.96267 33.0723 9.22545 33.01 9.47444 32.8889C10.3287 32.4602 10.6745 31.4227 10.2491 30.5652Z" fill="#2A7BE4"/>
<path d="M9.42298 39.9508C8.57226 39.5324 7.53139 39.8712 7.10246 40.7255L6.88459 41.1578C6.72556 40.3659 6.02689 39.771 5.19011 39.771C4.23564 39.771 3.46094 40.5457 3.46094 41.5002V44.9583C3.46094 45.9128 4.23564 46.6875 5.19011 46.6875H6.91928C7.57288 46.6875 8.17121 46.3174 8.46851 45.7296L10.1977 42.2715C10.623 41.4172 10.2773 40.3797 9.42298 39.9508Z" fill="#2A7BE4"/>
<path d="M50.1471 15.5632C49.1927 15.5632 48.418 16.3379 48.418 17.2924V19.0216C48.418 19.976 49.1927 20.7507 50.1471 20.7507C51.1016 20.7507 51.8763 19.976 51.8763 19.0216V17.2924C51.8761 16.3378 51.1016 15.5632 50.1471 15.5632Z" fill="#2A7BE4"/>
<path d="M81.2712 19.0215H50.1471C49.1927 19.0215 48.418 19.7962 48.418 20.7507C48.418 21.7051 49.1927 22.4798 50.1471 22.4798H81.2712C82.2257 22.4798 83.0004 21.7051 83.0004 20.7507C83.0004 19.7962 82.2257 19.0215 81.2712 19.0215Z" fill="#2A7BE4"/>
<path d="M50.1472 19.0215H19.0231C18.0686 19.0215 17.2939 19.7962 17.2939 20.7507C17.2939 21.7051 18.0686 22.4798 19.0231 22.4798H50.1472C51.1017 22.4798 51.8764 21.7051 51.8764 20.7507C51.8764 19.7962 51.1017 19.0215 50.1472 19.0215Z" fill="#2A7BE4"/>
<path d="M57.0632 57.0623C56.1087 57.0623 55.334 57.837 55.334 58.7914V65.7079C55.334 66.6624 56.1087 67.4371 57.0632 67.4371C58.0176 67.4371 58.7923 66.6624 58.7923 65.7079V58.7914C58.7923 57.8368 58.0176 57.0623 57.0632 57.0623Z" fill="#2A7BE4"/>
<path d="M70.8962 57.0623C69.9417 57.0623 69.167 57.837 69.167 58.7914V65.7079C69.167 66.6624 69.9417 67.4371 70.8962 67.4371C71.8506 67.4371 72.6253 66.6624 72.6253 65.7079V58.7914C72.6252 57.8368 71.8506 57.0623 70.8962 57.0623Z" fill="#2A7BE4"/>
<path d="M82.1147 60.7416C81.2813 60.2748 80.2265 60.5722 79.7596 61.4056C78.94 62.8684 75.5994 63.7814 74.3544 63.9785H39.7721C38.8177 63.9785 38.043 64.7532 38.043 65.7077C38.043 66.6622 38.8177 67.4369 39.7721 67.4369L74.593 67.4195C75.2329 67.3296 80.9008 66.4477 82.7787 63.0933C83.2455 62.2599 82.9481 61.2085 82.1147 60.7416Z" fill="#2A7BE4"/>
</g>
<defs>
<clipPath id="clip0">
<rect width="83" height="83" fill="white"/>
</clipPath>
</defs>
</svg>
