<svg width="18" height="17" viewBox="0 0 18 17" fill="none" xmlns="http://www.w3.org/2000/svg">
<path d="M15.1998 9.33379C15.0165 9.33379 14.8248 9.27546 14.6415 9.23379C14.2702 9.15198 13.9054 9.04336 13.5498 8.90879C13.1632 8.76815 12.7383 8.77546 12.3568 8.9293C11.9752 9.08314 11.6641 9.37266 11.4832 9.74213L11.2998 10.1171C10.4882 9.66561 9.74233 9.10482 9.08317 8.45046C8.42881 7.79131 7.86803 7.04546 7.41651 6.23379L7.76651 6.00046C8.13598 5.81956 8.42549 5.5084 8.57933 5.12687C8.73318 4.74534 8.74048 4.32039 8.59984 3.93379C8.46753 3.57748 8.35895 3.21279 8.27484 2.84213C8.23317 2.65879 8.19984 2.46713 8.17484 2.27546C8.07364 1.68848 7.76619 1.15691 7.30786 0.776493C6.84952 0.396074 6.27042 0.1918 5.67484 0.20046H3.17484C2.8157 0.197088 2.46005 0.271138 2.1321 0.417568C1.80415 0.563999 1.5116 0.779373 1.27437 1.04903C1.03713 1.31868 0.860785 1.63629 0.75733 1.98022C0.653874 2.32416 0.625739 2.68634 0.67484 3.04213C1.11879 6.53328 2.7132 9.77703 5.20622 12.261C7.69924 14.745 10.9488 16.3276 14.4415 16.7588H14.7582C15.3727 16.7597 15.966 16.5342 16.4248 16.1255C16.6885 15.8897 16.8991 15.6006 17.0427 15.2774C17.1864 14.9542 17.2598 14.6042 17.2582 14.2505V11.7505C17.248 11.1716 17.0372 10.6143 16.6618 10.1735C16.2864 9.73278 15.7697 9.43598 15.1998 9.33379ZM15.6165 14.3338C15.6164 14.4521 15.591 14.569 15.5422 14.6768C15.4933 14.7846 15.4221 14.8807 15.3332 14.9588C15.2403 15.0396 15.1315 15.1 15.0137 15.1359C14.896 15.1718 14.772 15.1824 14.6498 15.1671C11.5289 14.767 8.63004 13.3392 6.41044 11.109C4.19084 8.87887 2.77685 5.97324 2.39151 2.85046C2.37824 2.72839 2.38987 2.6049 2.42567 2.48745C2.46148 2.37 2.52073 2.26103 2.59984 2.16713C2.67793 2.07824 2.77406 2.00699 2.88182 1.95814C2.98959 1.90929 3.10652 1.88394 3.22484 1.88379H5.72484C5.91863 1.87948 6.10786 1.94286 6.25996 2.06302C6.41206 2.18318 6.51751 2.3526 6.55817 2.54213C6.59151 2.7699 6.63317 2.9949 6.68317 3.21713C6.77944 3.65641 6.90756 4.08811 7.06651 4.50879L5.89984 5.05046C5.80009 5.09623 5.71036 5.16125 5.6358 5.24179C5.56125 5.32233 5.50334 5.41681 5.4654 5.51979C5.42746 5.62277 5.41023 5.73224 5.41471 5.84189C5.41919 5.95155 5.44529 6.05925 5.49151 6.15879C6.69084 8.72776 8.75588 10.7928 11.3248 11.9921C11.5277 12.0755 11.7553 12.0755 11.9582 11.9921C12.0621 11.955 12.1576 11.8975 12.2391 11.8231C12.3207 11.7487 12.3866 11.6589 12.4332 11.5588L12.9498 10.3921C13.3806 10.5462 13.8203 10.6742 14.2665 10.7755C14.4887 10.8255 14.7137 10.8671 14.9415 10.9005C15.131 10.9411 15.3005 11.0466 15.4206 11.1987C15.5408 11.3508 15.6042 11.54 15.5998 11.7338L15.6165 14.3338Z" fill="#F59070"/>
</svg>
