<svg width="20" height="15" viewBox="0 0 20 15" fill="none" xmlns="http://www.w3.org/2000/svg">
<path d="M10.2497 7.68366C10.6943 7.29877 11.051 6.82273 11.2954 6.28785C11.5398 5.75296 11.6663 5.17175 11.6663 4.58366C11.6663 3.47859 11.2274 2.41878 10.446 1.63738C9.66455 0.855979 8.60474 0.416992 7.49968 0.416992C6.39461 0.416992 5.3348 0.855979 4.5534 1.63738C3.772 2.41878 3.33301 3.47859 3.33301 4.58366C3.333 5.17175 3.45951 5.75296 3.70395 6.28785C3.94838 6.82273 4.30503 7.29877 4.74968 7.68366C3.58312 8.2119 2.5934 9.06494 1.89882 10.1408C1.20425 11.2166 0.834234 12.4698 0.833008 13.7503C0.833008 13.9713 0.920805 14.1833 1.07709 14.3396C1.23337 14.4959 1.44533 14.5837 1.66634 14.5837C1.88736 14.5837 2.09932 14.4959 2.2556 14.3396C2.41188 14.1833 2.49967 13.9713 2.49967 13.7503C2.49967 12.4242 3.02646 11.1525 3.96414 10.2148C4.90182 9.27711 6.17359 8.75033 7.49968 8.75033C8.82576 8.75033 10.0975 9.27711 11.0352 10.2148C11.9729 11.1525 12.4997 12.4242 12.4997 13.7503C12.4997 13.9713 12.5875 14.1833 12.7438 14.3396C12.9 14.4959 13.112 14.5837 13.333 14.5837C13.554 14.5837 13.766 14.4959 13.9223 14.3396C14.0785 14.1833 14.1663 13.9713 14.1663 13.7503C14.1651 12.4698 13.7951 11.2166 13.1005 10.1408C12.406 9.06494 11.4162 8.2119 10.2497 7.68366ZM7.49968 7.08366C7.00522 7.08366 6.52187 6.93704 6.11075 6.66233C5.69963 6.38763 5.3792 5.99718 5.18998 5.54037C5.00076 5.08355 4.95125 4.58089 5.04771 4.09593C5.14418 3.61098 5.38228 3.16552 5.73191 2.81589C6.08154 2.46626 6.527 2.22816 7.01195 2.1317C7.4969 2.03523 7.99957 2.08474 8.45638 2.27396C8.9132 2.46318 9.30365 2.78361 9.57835 3.19473C9.85305 3.60586 9.99968 4.08921 9.99968 4.58366C9.99968 5.2467 9.73628 5.88259 9.26744 6.35143C8.7986 6.82027 8.16272 7.08366 7.49968 7.08366ZM15.6163 7.35033C16.1497 6.74977 16.498 6.00787 16.6195 5.21394C16.741 4.42001 16.6304 3.60789 16.3011 2.87533C15.9718 2.14276 15.4378 1.52099 14.7634 1.08484C14.089 0.648701 13.3028 0.416778 12.4997 0.416992C12.2787 0.416992 12.0667 0.50479 11.9104 0.66107C11.7541 0.81735 11.6663 1.02931 11.6663 1.25033C11.6663 1.47134 11.7541 1.6833 11.9104 1.83958C12.0667 1.99586 12.2787 2.08366 12.4997 2.08366C13.1627 2.08366 13.7986 2.34705 14.2674 2.81589C14.7363 3.28473 14.9997 3.92062 14.9997 4.58366C14.9985 5.02136 14.8824 5.45108 14.6631 5.82984C14.4437 6.20861 14.1287 6.52314 13.7497 6.74199C13.6261 6.81326 13.5229 6.91505 13.45 7.03761C13.377 7.16017 13.3368 7.29941 13.333 7.44199C13.3295 7.58346 13.3621 7.72349 13.4277 7.84888C13.4933 7.97426 13.5898 8.08087 13.708 8.15866L14.033 8.37533L14.1413 8.43366C15.1458 8.91009 15.9933 9.66365 16.5838 10.6056C17.1744 11.5475 17.4835 12.6386 17.4747 13.7503C17.4747 13.9713 17.5625 14.1833 17.7188 14.3396C17.875 14.4959 18.087 14.5837 18.308 14.5837C18.529 14.5837 18.741 14.4959 18.8973 14.3396C19.0535 14.1833 19.1413 13.9713 19.1413 13.7503C19.1482 12.4715 18.8279 11.2122 18.2109 10.092C17.5939 8.97189 16.7008 8.02809 15.6163 7.35033Z" fill="#2A7BE4"/>
</svg>
